{"glyphs":{"0":{"ha":513,"x_min":0,"x_max":0,"o":"m 440 885 b 256 1065 440 990 361 1065 b 69 885 149 1065 69 990 l 69 156 b 256 -28 69 49 146 -28 b 440 156 363 -28 440 49 z m 329 186 b 257 90 329 122 306 90 b 183 186 208 90 183 122 l 183 856 b 256 950 183 918 207 950 b 317 924 285 950 306 942 b 329 856 325 911 329 888 z "},"1":{"ha":513,"x_min":0,"x_max":0,"o":"m 321 1083 l 122 883 l 207 883 l 207 0 l 321 0 z "},"2":{"ha":513,"x_min":0,"x_max":0,"o":"m 428 113 l 231 113 l 374 422 b 414 518 396 471 410 503 b 425 625 421 544 425 579 l 425 885 b 244 1065 425 990 350 1065 b 58 885 138 1065 58 990 l 58 624 l 172 624 l 172 885 b 243 950 172 928 196 950 b 315 885 292 950 315 928 l 315 633 b 286 493 315 582 306 535 l 58 0 l 428 0 z "},"3":{"ha":513,"x_min":0,"x_max":0,"o":"m 440 144 b 422 253 440 193 435 229 b 336 322 408 282 379 306 b 440 624 406 413 440 514 b 338 918 440 738 406 836 b 69 1083 271 997 182 1051 l 69 964 b 329 619 243 904 329 789 b 174 322 329 501 269 382 l 4 322 l 69 215 l 268 215 b 329 174 308 215 329 201 b 268 113 329 118 322 113 l 69 113 l 69 0 l 268 0 b 388 35 317 0 357 11 b 440 144 422 61 440 97 z "},"4":{"ha":513,"x_min":0,"x_max":0,"o":"m 381 326 l 381 1083 l -21 210 l 268 210 l 268 0 l 381 0 l 381 210 l 481 210 l 532 326 z m 143 326 l 268 603 l 268 326 z "},"5":{"ha":513,"x_min":0,"x_max":0,"o":"m 488 186 b 399 321 488 257 458 301 b 222 335 371 331 313 335 l 222 924 l 488 924 l 488 1036 l 110 1036 l 110 221 l 314 221 b 374 174 354 221 374 206 b 371 142 374 160 372 149 b 314 113 367 122 349 113 l 110 113 l 110 0 l 314 0 b 488 151 429 0 488 50 z "},"6":{"ha":513,"x_min":0,"x_max":0,"o":"m 454 183 b 367 313 454 251 425 294 b 197 326 339 322 282 326 l 197 885 b 269 950 197 928 221 950 b 342 885 318 950 342 928 l 342 626 l 454 626 l 454 885 b 269 1065 454 990 375 1065 b 138 1013 218 1065 174 1047 b 85 885 103 978 85 936 l 86 194 b 128 56 86 136 100 90 b 258 0 157 18 201 0 l 301 0 b 454 132 383 0 454 54 z m 342 149 b 297 113 342 125 326 113 l 264 113 b 197 178 219 113 197 135 l 197 218 l 293 218 b 342 175 325 218 342 204 z "},"7":{"ha":513,"x_min":0,"x_max":0,"o":"m 106 1036 l 106 924 l 315 924 l 88 0 l 210 0 l 465 1036 z "},"8":{"ha":513,"x_min":0,"x_max":0,"o":"m 440 156 b 375 300 440 210 418 258 b 440 485 418 356 440 417 l 440 856 b 393 1001 440 914 425 963 b 256 1065 358 1044 313 1065 b 69 856 139 1065 69 974 l 69 485 b 136 300 69 417 92 354 b 69 157 92 254 69 206 b 257 -28 69 47 147 -28 b 440 156 364 -28 440 49 z m 329 485 b 256 350 329 421 304 376 b 183 485 207 376 183 422 l 183 856 b 256 950 183 918 207 950 b 329 856 304 950 329 918 z m 329 161 b 256 88 329 121 296 88 b 183 161 207 88 183 113 b 256 233 183 204 215 233 b 329 161 304 233 329 210 z "},"9":{"ha":513,"x_min":0,"x_max":0,"o":"m 435 857 b 250 1065 435 996 374 1065 b 68 857 129 1065 68 996 l 68 444 b 104 292 68 382 81 332 b 236 221 133 244 178 221 l 322 221 b 236 0 322 133 293 60 l 374 0 b 426 125 400 38 418 79 b 435 261 432 156 435 201 z m 236 335 b 181 446 199 335 181 372 l 181 857 b 250 950 181 919 204 950 b 311 925 282 950 301 942 b 322 857 318 913 322 890 l 322 335 z "}," ":{"ha":403,"x_min":0,"x_max":0,"o":""},"!":{"ha":269,"x_min":0,"x_max":0,"o":"m 192 1043 l 78 1043 l 78 218 l 192 218 z m 192 113 l 78 113 l 78 0 l 192 0 z "},"\"":{"ha":271,"x_min":0,"x_max":0,"o":"m 235 1036 l 172 1036 l 172 711 l 235 711 z m 100 1036 l 36 1036 l 36 711 l 100 711 z "},"#":{"ha":567,"x_min":0,"x_max":0,"o":"m 435 875 l 478 1036 l 413 1036 l 369 875 l 275 875 l 318 1036 l 251 1036 l 208 875 l 111 875 l 94 808 l 193 808 l 150 646 l 50 646 l 36 583 l 133 583 l 89 421 l 153 421 l 196 583 l 293 583 l 249 421 l 314 421 l 356 583 l 454 583 l 471 646 l 372 646 l 417 808 l 513 808 l 529 875 z m 311 646 l 214 646 l 256 808 l 351 808 z "},"$":{"ha":513,"x_min":0,"x_max":0,"o":"m 328 1036 l 328 1140 l 283 1140 l 283 1036 l 249 1036 b 143 703 178 936 143 825 b 200 474 143 649 163 572 b 257 246 238 375 257 300 b 169 0 257 160 228 78 l 243 0 l 243 -115 l 289 -115 l 289 0 l 313 0 b 375 253 354 81 375 165 b 319 476 375 304 357 379 b 265 699 283 574 265 647 b 403 1036 265 831 311 943 z "},"%":{"ha":808,"x_min":0,"x_max":0,"o":"m 767 531 b 646 642 767 604 726 642 b 525 531 579 642 525 597 l 525 97 b 646 -15 525 32 581 -15 b 767 97 713 -15 767 32 z m 510 1044 l 232 0 l 300 0 l 578 1044 z m 285 944 b 163 1056 285 1011 231 1056 b 43 944 94 1056 43 1011 l 43 511 b 164 399 43 444 97 399 b 285 511 235 399 285 443 z m 682 114 b 647 64 682 81 671 64 b 611 114 624 64 611 81 l 611 514 b 646 565 611 549 622 565 b 682 514 669 565 682 549 z m 200 531 b 164 479 200 496 188 479 b 128 526 140 479 128 494 l 128 928 b 164 979 128 963 140 979 b 200 928 188 979 200 963 z "},"&":{"ha":703,"x_min":0,"x_max":0,"o":"m 492 332 l 492 625 l 381 625 l 381 332 b 231 617 281 397 231 492 b 492 965 231 785 331 914 l 492 1083 b 224 914 379 1051 289 994 b 119 618 154 831 119 732 b 222 322 119 515 154 417 b 119 189 154 299 119 254 l 119 149 b 271 0 119 61 183 0 l 492 0 l 492 224 l 579 224 l 649 332 z m 285 113 b 231 158 249 113 231 128 l 231 181 b 285 224 231 210 249 224 l 381 224 l 381 113 z "},"'":{"ha":136,"x_min":0,"x_max":0,"o":"m 100 1036 l 36 1036 l 36 711 l 100 711 z "},"(":{"ha":433,"x_min":0,"x_max":0,"o":"m 382 0 b 225 242 317 60 264 140 b 172 526 190 336 172 431 b 382 1054 172 731 242 907 l 382 1215 b 54 526 164 1042 54 811 b 139 144 54 392 82 264 b 382 -161 196 22 276 -79 z "},")":{"ha":433,"x_min":0,"x_max":0,"o":"m 379 526 b 51 1215 379 799 263 1050 l 51 1054 b 207 813 115 1000 167 919 b 263 529 244 715 263 621 b 210 244 263 431 244 335 b 51 0 172 150 119 68 l 51 -161 b 379 526 269 10 379 239 z "},"*":{"ha":379,"x_min":0,"x_max":0,"o":"m 253 878 l 344 928 l 314 985 l 222 931 l 222 1036 l 157 1036 l 157 931 l 67 985 l 35 928 l 125 878 l 35 821 l 67 764 l 157 817 l 157 711 l 222 711 l 222 817 l 314 764 l 344 821 z "},"+":{"ha":513,"x_min":0,"x_max":0,"o":"m 471 558 l 324 558 l 324 736 l 225 736 l 225 558 l 78 558 l 78 460 l 225 460 l 225 290 l 324 290 l 324 460 l 471 460 z "},",":{"ha":215,"x_min":0,"x_max":0,"o":"m 163 113 l 51 113 l 51 -108 b 163 64 136 -75 163 -31 z "},"-":{"ha":408,"x_min":0,"x_max":0,"o":"m 336 332 l 78 332 l 78 218 l 336 218 z "},".":{"ha":215,"x_min":0,"x_max":0,"o":"m 163 113 l 51 113 l 51 0 l 163 0 z "},"/":{"ha":433,"x_min":0,"x_max":0,"o":"m 363 1210 l 1 -157 l 68 -157 l 429 1210 z "},":":{"ha":215,"x_min":0,"x_max":0,"o":"m 163 326 l 51 326 l 51 208 l 163 208 z m 163 113 l 51 113 l 51 0 l 163 0 z "},";":{"ha":215,"x_min":0,"x_max":0,"o":"m 163 326 l 51 326 l 51 210 l 163 210 z m 163 113 l 51 113 l 51 -108 b 163 64 136 -75 163 -31 z "},"<":{"ha":769,"x_min":0,"x_max":0,"o":"m 718 271 l 171 524 l 718 775 l 718 888 l 51 572 l 51 476 l 718 160 z "},"=":{"ha":513,"x_min":0,"x_max":0,"o":"m 433 682 l 83 682 l 83 583 l 433 583 z m 433 465 l 83 465 l 83 364 l 433 364 z "},">":{"ha":769,"x_min":0,"x_max":0,"o":"m 719 572 l 53 888 l 53 775 l 601 524 l 53 272 l 53 160 l 719 475 z "},"?":{"ha":460,"x_min":0,"x_max":0,"o":"m 385 885 b 217 1065 385 990 321 1065 b 49 885 115 1065 49 989 l 49 619 l 160 619 l 160 885 b 217 950 160 928 179 950 b 274 885 254 950 274 928 l 274 469 b 153 340 274 383 233 340 l 153 208 b 325 286 226 208 283 235 b 385 469 365 335 385 396 z m 267 113 l 153 113 l 153 0 l 267 0 z "},"@":{"ha":661,"x_min":0,"x_max":0,"o":"m 588 778 b 332 1065 588 969 503 1065 b 133 985 244 1065 179 1039 b 69 778 90 935 69 865 l 69 257 b 317 -29 69 67 151 -29 b 508 42 376 -29 440 -6 l 440 128 b 322 79 400 96 360 79 b 206 146 265 79 226 101 b 183 288 190 176 183 224 l 183 753 b 211 894 183 818 193 865 b 338 950 235 932 276 950 b 453 889 393 950 432 929 b 476 753 468 860 476 815 l 476 518 b 329 503 404 518 356 513 b 257 388 281 485 257 447 b 294 240 257 314 269 265 b 444 196 321 215 371 200 l 444 306 b 421 303 436 304 428 303 b 364 351 383 303 364 319 b 421 417 364 400 375 417 l 481 417 l 481 196 l 588 196 z "},"A":{"ha":567,"x_min":0,"x_max":0,"o":"m 488 857 b 446 1003 488 917 474 965 b 311 1065 414 1044 369 1065 b 172 1004 251 1065 204 1044 b 126 857 142 967 126 918 l 126 322 l -36 322 l 31 215 l 126 215 l 126 0 l 239 0 l 239 215 l 375 215 l 375 0 l 488 0 z m 239 322 l 239 857 b 306 950 239 919 261 950 b 364 924 335 950 354 942 b 375 857 371 911 375 889 l 375 322 z "},"B":{"ha":538,"x_min":0,"x_max":0,"o":"m 494 143 b 476 260 494 200 489 239 b 379 322 461 288 429 308 b 494 618 456 410 494 508 b 221 1043 494 807 403 949 b 126 1083 171 1069 139 1082 l 126 322 l -36 322 l 31 215 l 126 215 l 126 0 l 322 0 b 442 35 371 0 410 11 b 494 143 476 61 494 97 z m 382 606 b 239 322 382 504 335 410 l 239 899 b 382 606 335 817 382 718 z m 382 156 b 332 113 382 126 365 113 l 239 113 l 239 215 l 332 215 b 382 172 365 215 382 201 z "},"C":{"ha":379,"x_min":0,"x_max":0,"o":"m 400 0 b 211 231 314 75 251 151 b 146 519 168 315 146 411 b 400 1036 146 715 231 888 l 236 1036 b 35 521 101 882 35 710 b 236 0 35 321 101 147 z "},"D":{"ha":486,"x_min":0,"x_max":0,"o":"m 465 529 b 178 1033 465 750 369 918 b 78 1083 124 1065 90 1082 l 78 -26 b 179 24 93 -25 128 -8 b 465 529 369 143 465 311 z m 350 522 b 192 171 350 389 297 272 l 192 882 b 350 522 297 774 350 654 z "},"E":{"ha":486,"x_min":0,"x_max":0,"o":"m 450 113 l 281 113 b 239 153 253 113 239 126 l 239 215 l 450 215 l 450 322 l 239 322 l 239 924 l 450 924 l 450 1036 l 126 1036 l 126 322 l -36 322 l 31 215 l 126 215 b 150 64 126 144 135 94 b 281 0 174 21 217 0 l 450 0 z "},"F":{"ha":486,"x_min":0,"x_max":0,"o":"m 450 322 l 239 322 l 239 924 l 450 924 l 450 1036 l 126 1036 l 126 322 l -36 322 l 31 215 l 126 215 l 126 0 l 239 0 l 239 215 l 450 215 z "},"G":{"ha":486,"x_min":0,"x_max":0,"o":"m 417 521 l 303 521 l 303 164 b 135 531 190 268 135 390 b 344 926 135 707 204 839 b 417 965 385 951 410 964 l 417 1083 b 364 1063 407 1082 389 1075 l 313 1032 b 21 531 118 914 21 747 b 315 19 21 301 119 132 b 417 -26 367 -10 401 -25 z "},"H":{"ha":567,"x_min":0,"x_max":0,"o":"m 490 1036 l 379 1036 l 379 322 l 235 322 l 235 1036 l 124 1036 l 124 322 l -39 322 l 26 215 l 124 215 l 124 0 l 235 0 l 235 215 l 379 215 l 379 0 l 490 0 z "},"I":{"ha":269,"x_min":0,"x_max":0,"o":"m 192 1036 l 78 1036 l 78 0 l 192 0 z "},"J":{"ha":325,"x_min":0,"x_max":0,"o":"m 257 1036 l 144 1036 l 144 372 b -32 92 144 210 86 115 l -32 -28 b 257 372 161 18 257 151 z "},"K":{"ha":567,"x_min":0,"x_max":0,"o":"m 504 160 b 389 322 504 253 465 307 b 504 646 465 396 504 504 l 504 1036 l 390 1036 l 390 646 b 236 322 390 504 339 396 l 236 1036 l 125 1036 l 125 322 l -37 322 l 29 215 l 125 215 l 125 0 l 236 0 l 236 215 l 343 215 b 390 163 383 215 390 201 l 390 0 l 504 0 z "},"L":{"ha":350,"x_min":0,"x_max":0,"o":"m 381 113 l 257 113 b 197 129 224 113 204 118 b 190 196 193 136 190 158 l 190 1036 l 76 1036 l 76 196 b 111 46 76 122 88 72 b 257 0 138 15 186 0 l 381 0 z "},"M":{"ha":729,"x_min":0,"x_max":0,"o":"m 654 885 b 486 1065 654 996 596 1065 b 365 1022 449 1065 408 1051 b 244 1065 325 1051 285 1065 b 76 885 138 1065 76 994 l 76 0 l 190 0 l 190 885 b 249 950 190 928 210 950 b 311 885 290 950 311 928 l 311 0 l 421 0 l 421 885 b 483 950 421 928 442 950 b 542 885 522 950 542 928 l 542 0 l 654 0 z "},"N":{"ha":510,"x_min":0,"x_max":0,"o":"m 435 1036 l 322 1036 l 322 663 l 76 1090 l 76 0 l 190 0 l 190 678 l 322 457 l 322 0 l 435 0 z "},"O":{"ha":510,"x_min":0,"x_max":0,"o":"m 440 885 b 256 1065 440 990 361 1065 b 69 885 149 1065 69 990 l 69 157 b 256 -26 69 50 146 -26 b 440 157 363 -26 440 50 z m 329 188 b 257 92 329 124 306 92 b 183 188 208 92 183 124 l 183 856 b 256 950 183 918 207 950 b 317 924 285 950 306 942 b 329 856 325 911 329 888 z "},"P":{"ha":433,"x_min":0,"x_max":0,"o":"m 450 618 b 174 1046 450 811 358 954 b 78 1083 125 1069 93 1082 l 78 0 l 192 0 l 192 196 b 450 618 364 290 450 431 z m 336 606 b 192 326 336 499 288 406 l 192 899 b 336 606 288 819 336 722 z "},"Q":{"ha":510,"x_min":0,"x_max":0,"o":"m 442 -10 b 319 58 394 -3 354 19 b 418 175 368 96 401 135 b 442 328 433 211 442 263 l 442 857 b 397 1006 442 919 426 968 b 257 1065 364 1046 317 1065 b 118 1004 197 1065 150 1044 b 72 857 88 967 72 918 l 72 210 l 186 210 l 186 857 b 256 950 186 919 210 950 b 331 857 306 950 331 919 l 331 328 b 129 113 331 185 264 113 l 129 0 b 271 -56 174 0 221 -18 b 442 -124 325 -94 382 -117 z "},"R":{"ha":538,"x_min":0,"x_max":0,"o":"m 494 163 b 475 272 494 213 488 249 b 379 322 457 306 425 322 b 494 618 456 404 494 503 b 221 1046 494 811 403 954 b 126 1083 172 1069 142 1082 l 126 322 l -36 322 l 31 215 l 126 215 l 126 0 l 239 0 l 239 215 l 335 215 b 382 163 375 215 382 206 l 382 0 l 494 0 z m 382 606 b 239 322 382 496 335 401 l 239 899 b 382 606 335 818 382 721 z "},"S":{"ha":325,"x_min":0,"x_max":0,"o":"m 139 1036 b 33 703 68 943 33 832 b 72 504 33 646 46 579 b 154 247 126 347 154 261 b 57 0 154 163 122 81 l 200 0 b 267 254 244 81 267 165 b 206 476 267 306 246 379 b 144 703 165 575 144 650 b 292 1036 144 832 193 943 z "},"T":{"ha":324,"x_min":0,"x_max":0,"o":"m 340 1036 l -18 1036 l -18 924 l 104 924 l 104 0 l 217 0 l 217 924 l 340 924 z "},"U":{"ha":513,"x_min":0,"x_max":0,"o":"m 439 1036 l 328 1036 l 328 176 b 256 89 328 118 304 89 b 188 176 210 89 188 118 l 188 1036 l 74 1036 l 74 176 b 119 33 74 117 89 69 b 256 -26 151 -7 197 -26 b 393 32 315 -26 361 -7 b 439 176 424 68 439 117 z "},"V":{"ha":433,"x_min":0,"x_max":0,"o":"m 314 1036 l 217 476 l 121 1036 l 4 1036 l 217 -74 l 428 1036 z "},"W":{"ha":649,"x_min":0,"x_max":0,"o":"m 528 1036 l 438 488 l 328 1083 l 217 488 l 124 1036 l 1 1036 l 217 -74 l 325 521 l 442 -74 l 647 1036 z "},"X":{"ha":433,"x_min":0,"x_max":0,"o":"m 279 519 l 413 1036 l 303 1036 l 215 703 l 129 1036 l 19 1036 l 154 519 l 19 0 l 128 0 l 215 336 l 303 0 l 413 0 z "},"Y":{"ha":460,"x_min":0,"x_max":0,"o":"m 413 1036 l 300 1036 l 300 414 b 231 333 300 360 276 333 b 160 414 183 333 160 360 l 160 1036 l 49 1036 l 49 414 b 175 222 49 310 90 246 l 175 0 l 286 0 l 286 222 b 413 414 371 249 413 313 z "},"Z":{"ha":350,"x_min":0,"x_max":0,"o":"m 18 1036 l 18 924 l 218 924 l -10 0 l 346 0 l 346 113 l 135 113 l 363 1036 z "},"[":{"ha":325,"x_min":0,"x_max":0,"o":"m 275 -57 l 194 -57 l 194 1090 l 275 1090 l 275 1197 l 82 1197 l 82 -162 l 275 -162 z "},"\\":{"ha":433,"x_min":0,"x_max":0,"o":"m 68 1210 l 1 1210 l 364 -157 l 429 -157 z "},"]":{"ha":325,"x_min":0,"x_max":0,"o":"m 243 1197 l 51 1197 l 51 1090 l 131 1090 l 131 -57 l 51 -57 l 51 -162 l 243 -162 z "},"^":{"ha":769,"x_min":0,"x_max":0,"o":"m 460 1036 l 314 1036 l 40 567 l 160 567 l 385 947 l 613 567 l 733 567 z "},"_":{"ha":694,"x_min":0,"x_max":0,"o":"m 694 -139 l 0 -139 l 0 -208 l 694 -208 z "},"`":{"ha":404,"x_min":0,"x_max":0,"o":"m 79 1167 l 68 1103 l 325 1057 l 336 1119 z "},"a":{"ha":368,"x_min":0,"x_max":0,"o":"m 317 514 b 203 639 317 597 279 639 b 82 514 126 639 82 590 l 82 193 l -24 193 l 19 129 l 82 129 l 82 0 l 156 0 l 156 129 l 244 129 l 244 0 l 317 0 z m 156 193 l 156 514 b 199 571 156 551 169 571 b 244 514 229 571 244 551 l 244 193 z "},"b":{"ha":349,"x_min":0,"x_max":0,"o":"m 321 86 b 310 157 321 121 317 144 b 247 193 300 174 279 186 b 321 371 296 247 321 306 b 143 626 321 483 261 569 b 82 650 111 642 90 650 l 82 193 l -24 193 l 19 129 l 82 129 l 82 0 l 210 0 b 285 19 239 0 264 7 b 321 86 308 35 321 57 z m 249 363 b 156 193 249 303 218 246 l 156 540 b 249 363 218 486 249 426 z m 249 93 b 215 67 249 75 238 67 l 156 67 l 156 129 l 215 129 b 249 104 238 129 249 121 z "},"c":{"ha":247,"x_min":0,"x_max":0,"o":"m 260 0 b 94 311 150 89 94 193 b 260 622 94 429 150 532 l 153 622 b 22 313 65 529 22 426 b 153 0 22 194 65 90 z "},"d":{"ha":315,"x_min":0,"x_max":0,"o":"m 303 318 b 115 621 303 450 240 551 b 51 650 82 639 61 649 l 51 -17 b 117 14 61 -15 82 -6 b 303 318 240 85 303 186 z m 228 313 b 125 103 228 233 193 163 l 125 529 b 228 313 193 467 228 394 z "},"e":{"ha":315,"x_min":0,"x_max":0,"o":"m 292 67 l 182 67 b 156 92 164 67 156 75 l 156 129 l 292 129 l 292 193 l 156 193 l 156 556 l 292 556 l 292 622 l 82 622 l 82 193 l -24 193 l 19 129 l 82 129 b 99 38 82 86 88 56 b 182 0 113 13 140 0 l 292 0 z "},"f":{"ha":315,"x_min":0,"x_max":0,"o":"m 292 193 l 156 193 l 156 556 l 292 556 l 292 622 l 82 622 l 82 193 l -24 193 l 19 129 l 82 129 l 82 0 l 156 0 l 156 129 l 292 129 z "},"g":{"ha":315,"x_min":0,"x_max":0,"o":"m 271 313 l 196 313 l 196 99 b 88 318 124 161 88 235 b 224 556 88 425 133 504 b 271 579 250 571 267 578 l 271 650 b 203 619 260 649 238 639 b 14 318 76 547 14 447 b 204 11 14 181 78 79 b 271 -17 238 -7 260 -15 z "},"h":{"ha":368,"x_min":0,"x_max":0,"o":"m 318 622 l 247 622 l 247 193 l 153 193 l 153 622 l 81 622 l 81 193 l -26 193 l 18 129 l 81 129 l 81 0 l 153 0 l 153 129 l 247 129 l 247 0 l 318 0 z "},"i":{"ha":175,"x_min":0,"x_max":0,"o":"m 125 622 l 51 622 l 51 0 l 125 0 z "},"j":{"ha":211,"x_min":0,"x_max":0,"o":"m 167 622 l 94 622 l 94 224 b -21 56 94 125 56 68 l -21 -17 b 167 224 104 11 167 92 z "},"k":{"ha":368,"x_min":0,"x_max":0,"o":"m 328 96 b 253 193 328 153 303 185 b 328 388 303 239 328 303 l 328 622 l 253 622 l 253 388 b 153 193 253 303 219 238 l 153 622 l 82 622 l 82 193 l -25 193 l 19 129 l 82 129 l 82 0 l 153 0 l 153 129 l 222 129 b 253 97 249 129 253 125 l 253 0 l 328 0 z "},"l":{"ha":228,"x_min":0,"x_max":0,"o":"m 247 67 l 167 67 b 124 118 124 67 124 72 l 124 622 l 50 622 l 50 118 b 167 0 50 29 78 0 l 247 0 z "},"m":{"ha":474,"x_min":0,"x_max":0,"o":"m 425 531 b 315 639 425 603 389 639 b 238 613 290 639 264 631 b 160 639 211 631 185 639 b 50 531 86 639 50 603 l 50 0 l 124 0 l 124 531 b 161 571 124 557 136 571 b 203 531 189 571 203 557 l 203 0 l 275 0 l 275 531 b 314 571 275 557 288 571 b 351 531 339 571 351 557 l 351 0 l 425 0 z "},"n":{"ha":332,"x_min":0,"x_max":0,"o":"m 282 622 l 210 622 l 210 397 l 50 654 l 50 0 l 124 0 l 124 407 l 210 275 l 210 0 l 282 0 z "},"o":{"ha":332,"x_min":0,"x_max":0,"o":"m 286 531 b 167 639 286 597 235 639 b 46 531 99 639 46 597 l 46 94 b 167 -17 46 28 100 -17 b 286 94 233 -17 286 28 z m 214 113 b 167 56 214 75 199 56 b 119 113 135 56 119 75 l 119 513 b 167 571 119 551 135 571 b 214 513 199 571 214 551 z "},"p":{"ha":282,"x_min":0,"x_max":0,"o":"m 292 371 b 113 628 292 488 232 574 b 51 650 81 643 60 650 l 51 0 l 125 0 l 125 118 b 292 371 236 174 292 258 z m 218 363 b 125 196 218 299 188 243 l 125 540 b 218 363 188 492 218 432 z "},"q":{"ha":332,"x_min":0,"x_max":0,"o":"m 286 -6 b 207 35 254 -1 228 13 b 271 104 239 57 260 81 b 286 196 281 125 286 156 l 286 514 b 167 639 286 597 246 639 b 47 514 90 639 47 590 l 47 126 l 121 126 l 121 514 b 167 571 121 551 136 571 b 215 514 199 571 215 551 l 215 196 b 83 68 215 111 171 68 l 83 0 b 179 -35 111 0 143 -11 b 286 -75 217 -58 251 -71 z "},"r":{"ha":349,"x_min":0,"x_max":0,"o":"m 321 97 b 247 193 321 161 296 193 b 321 371 296 242 321 301 b 143 628 321 488 261 574 b 82 650 113 642 92 649 l 82 193 l -24 193 l 19 129 l 82 129 l 82 0 l 156 0 l 156 129 l 218 129 b 249 97 244 129 249 125 l 249 0 l 321 0 z m 249 363 b 156 193 249 297 218 240 l 156 540 b 249 363 218 492 249 433 z "},"s":{"ha":211,"x_min":0,"x_max":0,"o":"m 90 622 b 22 421 44 565 22 499 b 61 268 22 386 35 335 b 100 149 88 203 100 163 b 38 0 100 97 79 49 l 131 0 b 172 153 158 49 172 99 b 132 285 172 182 158 226 b 93 421 106 344 93 389 b 190 622 93 497 125 564 z "},"t":{"ha":210,"x_min":0,"x_max":0,"o":"m 222 622 l -11 622 l -11 556 l 68 556 l 68 0 l 140 0 l 140 556 l 222 556 z "},"u":{"ha":333,"x_min":0,"x_max":0,"o":"m 285 622 l 213 622 l 213 106 b 167 54 213 71 197 54 b 122 106 138 54 122 71 l 122 622 l 49 622 l 49 106 b 167 -15 49 32 93 -15 b 285 106 246 -15 285 25 z "},"v":{"ha":282,"x_min":0,"x_max":0,"o":"m 204 622 l 140 286 l 79 622 l 3 622 l 140 -44 l 278 622 z "},"w":{"ha":421,"x_min":0,"x_max":0,"o":"m 343 622 l 283 293 l 213 650 l 140 293 l 81 622 l 1 622 l 140 -44 l 211 313 l 288 -44 l 421 622 z "},"x":{"ha":282,"x_min":0,"x_max":0,"o":"m 182 311 l 268 622 l 196 622 l 140 421 l 83 622 l 13 622 l 101 311 l 13 0 l 83 0 l 140 201 l 197 0 l 268 0 z "},"y":{"ha":299,"x_min":0,"x_max":0,"o":"m 268 622 l 194 622 l 194 249 b 150 200 194 217 179 200 b 104 249 119 200 104 217 l 104 622 l 32 622 l 32 249 b 114 133 32 186 60 149 l 114 0 l 186 0 l 186 133 b 268 249 240 149 268 188 z "},"z":{"ha":228,"x_min":0,"x_max":0,"o":"m 11 622 l 13 556 l 142 556 l -6 0 l 225 0 l 225 67 l 88 67 l 236 622 z "},"{":{"ha":379,"x_min":0,"x_max":0,"o":"m 322 -36 b 254 24 288 -18 264 1 b 244 115 247 40 244 71 l 244 374 b 204 542 244 432 231 488 b 238 635 219 574 231 606 b 247 739 242 658 246 693 b 246 860 247 771 247 811 b 244 957 244 919 244 953 b 322 1092 244 1022 271 1067 l 322 1215 b 160 1092 243 1196 189 1154 b 128 890 139 1046 128 978 l 128 822 b 129 754 129 792 129 769 b 118 629 129 692 125 650 b 57 542 110 606 89 576 b 113 467 86 510 104 485 b 129 374 124 443 129 411 l 129 115 b 322 -161 129 -35 182 -115 z "},"|":{"ha":769,"x_min":0,"x_max":0,"o":"m 440 1036 l 331 1036 l 331 -257 l 440 -257 z "},"}":{"ha":379,"x_min":0,"x_max":0,"o":"m 322 542 b 258 629 288 576 265 606 b 249 754 251 649 249 690 b 250 822 249 769 249 792 b 251 894 251 854 251 878 b 218 1094 251 982 240 1049 b 57 1215 189 1158 135 1199 l 57 1092 b 135 957 108 1067 135 1022 l 135 754 b 140 644 135 703 136 667 b 176 542 146 613 158 579 b 135 378 149 492 135 438 b 138 278 135 381 136 347 b 136 122 139 215 138 163 b 121 13 133 64 128 28 b 57 -36 111 -8 89 -24 l 57 -161 b 249 115 197 -111 249 -36 l 249 374 b 264 456 249 406 254 433 b 322 542 276 483 296 513 z "},"~":{"ha":863,"x_min":0,"x_max":0,"o":"m 689 714 b 633 638 668 676 649 651 b 549 607 611 617 583 607 b 426 657 521 607 481 624 b 303 707 372 690 332 707 b 194 642 264 707 228 685 b 129 525 176 618 154 579 l 196 482 b 247 564 217 522 235 550 b 332 599 269 588 297 599 b 425 549 340 599 371 582 b 535 500 479 517 515 500 b 754 671 631 500 703 557 z "},"†":{"ha":486,"x_min":0,"x_max":0,"o":"m 469 807 l 299 807 l 299 1036 l 188 1036 l 188 807 l 17 807 l 17 690 l 188 690 l 188 111 l 242 13 l 299 111 l 299 690 l 469 690 z "},"¢":{"ha":513,"x_min":0,"x_max":0,"o":"m 413 226 b 261 524 311 304 261 403 b 413 814 261 642 311 739 l 319 814 l 319 929 l 275 929 l 275 814 l 244 814 b 143 521 176 724 143 625 b 244 226 143 426 176 328 l 275 226 l 275 115 l 319 115 l 319 226 z "},"£":{"ha":513,"x_min":0,"x_max":0,"o":"m 488 39 b 267 96 438 39 364 58 b 322 215 296 132 314 172 l 488 215 l 488 321 l 322 321 b 267 467 318 336 300 385 b 232 618 243 526 232 576 b 488 964 232 794 317 910 l 488 1083 b 221 914 376 1054 288 999 b 121 617 154 829 121 731 b 206 321 121 549 149 450 l 43 321 l 111 215 l 199 215 b 111 106 188 169 158 132 l 111 0 b 300 -37 154 0 218 -12 b 488 -75 382 -62 444 -75 z "},"§":{"ha":513,"x_min":0,"x_max":0,"o":"m 336 514 b 253 356 336 456 308 403 l 426 356 b 468 504 454 404 468 454 b 399 710 468 558 444 626 b 331 882 353 794 331 851 b 415 1039 331 942 358 994 l 242 1039 b 199 889 213 993 199 943 b 257 704 199 822 218 761 l 86 704 b 46 553 60 653 46 603 b 114 356 46 501 68 436 b 183 176 160 275 183 215 b 97 15 183 117 154 64 l 271 15 b 314 169 300 67 314 118 b 253 356 314 231 293 293 b 175 542 201 432 175 494 b 197 632 175 576 182 607 b 258 703 207 650 228 674 b 336 514 310 640 336 576 z "},"•":{"ha":546,"x_min":0,"x_max":0,"o":"m 454 531 b 399 657 454 581 436 622 b 268 708 361 692 318 708 b 143 653 219 708 178 690 b 92 524 108 615 92 572 b 147 397 92 475 110 432 b 276 344 185 363 228 344 b 403 400 326 344 368 363 b 454 531 438 438 454 481 z "},"¶":{"ha":558,"x_min":0,"x_max":0,"o":"m 490 1075 b 407 1083 453 1081 425 1083 b 300 1053 378 1083 343 1074 b 99 875 218 1014 151 954 b 19 624 46 796 19 711 b 263 207 19 450 100 311 l 263 -157 l 347 -157 l 347 981 l 407 981 l 407 -157 l 490 -157 z "},"ß":{"ha":486,"x_min":0,"x_max":0,"o":"m 443 269 b 369 561 443 354 418 451 l 429 806 b 442 892 438 840 442 868 b 388 1014 442 940 424 982 b 261 1064 353 1047 310 1064 b 119 1003 201 1064 154 1043 b 74 853 89 964 74 914 l 74 0 l 188 0 l 188 853 b 258 949 188 917 211 949 b 324 889 301 949 324 929 b 240 561 324 869 296 760 b 332 271 301 463 332 365 b 240 0 332 167 301 76 l 369 0 b 443 269 418 81 443 171 z "},"´":{"ha":404,"x_min":0,"x_max":0,"o":"m 325 1150 l 68 1104 l 79 1043 l 336 1089 z "},"¨":{"ha":404,"x_min":0,"x_max":0,"o":"m 324 1140 l 242 1140 l 242 1060 l 324 1060 z m 160 1140 l 81 1140 l 81 1060 l 160 1060 z "},"Æ":{"ha":729,"x_min":0,"x_max":0,"o":"m 694 113 l 528 113 b 485 153 499 113 485 126 l 485 215 l 694 215 l 694 322 l 485 322 l 482 924 l 694 924 l 694 1036 l 406 1036 b 310 1064 367 1054 335 1064 b 124 856 192 1064 124 976 l 124 322 l -39 322 l 26 215 l 124 215 l 124 0 l 235 0 l 235 215 l 372 215 b 396 64 372 144 381 93 b 528 0 419 21 463 0 l 694 0 z m 235 322 l 235 858 b 303 949 235 918 257 949 b 372 860 349 949 372 919 l 372 322 z "},"Ø":{"ha":510,"x_min":0,"x_max":0,"o":"m 440 883 b 404 994 440 919 428 957 l 432 1088 l 386 1101 l 363 1032 b 257 1064 325 1053 289 1064 b 69 883 150 1064 69 989 l 69 154 b 106 42 69 111 82 74 l 76 -53 l 124 -68 l 144 4 b 253 -29 188 -18 224 -29 b 440 154 364 -29 440 43 z m 183 268 l 183 854 b 256 949 183 917 207 949 b 318 917 281 949 301 938 z m 329 186 b 257 89 329 121 306 89 b 194 121 228 89 207 100 l 329 768 z "},"¥":{"ha":568,"x_min":0,"x_max":0,"o":"m 542 249 l 396 249 b 429 283 407 257 418 268 l 542 283 l 542 326 l 456 326 b 469 385 465 364 469 383 l 469 1036 l 356 1036 l 356 414 b 285 333 356 360 332 333 b 214 414 238 333 214 360 l 214 1036 l 101 1036 l 101 414 b 115 326 101 382 106 353 l 29 326 l 29 283 l 140 283 b 175 249 156 267 167 256 l 29 249 l 29 207 l 229 207 l 229 0 l 342 0 l 342 207 l 542 207 z "},"ª":{"ha":476,"x_min":0,"x_max":0,"o":"m 404 1036 l 282 1036 b 139 1018 214 1036 167 1031 b 72 903 94 999 72 960 l 72 860 b 132 744 72 806 92 768 b 263 715 160 729 203 719 l 263 824 b 181 869 208 819 181 835 b 235 935 181 915 190 935 l 296 935 l 296 715 l 404 715 z m 404 653 l 72 653 l 72 571 l 404 571 z "},"º":{"ha":479,"x_min":0,"x_max":0,"o":"m 404 865 b 239 1036 404 969 340 1036 b 72 865 139 1036 72 967 b 239 704 72 767 139 704 b 404 865 335 704 404 771 z m 408 653 l 72 653 l 72 571 l 408 571 z m 310 865 b 240 792 310 825 283 792 b 169 865 193 792 169 817 b 239 949 169 921 193 949 b 310 865 286 949 310 921 z "},"æ":{"ha":729,"x_min":0,"x_max":0,"o":"m 694 113 l 528 113 b 485 153 499 113 485 126 l 485 215 l 694 215 l 694 322 l 485 322 l 482 924 l 694 924 l 694 1036 l 406 1036 b 310 1064 367 1054 335 1064 b 124 856 192 1064 124 976 l 124 322 l -39 322 l 26 215 l 124 215 l 124 0 l 235 0 l 235 215 l 372 215 b 396 64 372 144 381 93 b 528 0 419 21 463 0 l 694 0 z m 235 322 l 235 858 b 303 949 235 918 257 949 b 372 860 349 949 372 919 l 372 322 z "},"ø":{"ha":510,"x_min":0,"x_max":0,"o":"m 440 883 b 404 994 440 919 428 957 l 432 1088 l 386 1101 l 363 1032 b 257 1064 325 1053 289 1064 b 69 883 150 1064 69 989 l 69 154 b 106 42 69 111 82 74 l 76 -53 l 124 -68 l 144 4 b 253 -29 188 -18 224 -29 b 440 154 364 -29 440 43 z m 183 268 l 183 854 b 256 949 183 917 207 949 b 318 917 281 949 301 938 z m 329 186 b 257 89 329 121 306 89 b 194 121 228 89 207 100 l 329 768 z "},"¿":{"ha":460,"x_min":0,"x_max":0,"o":"m 306 1043 l 194 1043 l 194 931 l 306 931 z m 411 426 l 299 426 l 299 163 b 242 94 299 117 279 94 b 188 163 206 94 188 117 l 188 578 b 306 708 188 665 226 708 l 306 835 b 136 760 235 835 178 810 b 74 578 94 711 74 650 l 74 163 b 242 -18 74 57 136 -18 b 411 163 346 -18 411 58 z "},"¡":{"ha":269,"x_min":0,"x_max":0,"o":"m 192 1043 l 78 1043 l 78 931 l 192 931 z m 192 829 l 78 829 l 78 0 l 192 0 z "},"ƒ":{"ha":513,"x_min":0,"x_max":0,"o":"m 479 321 l 303 321 l 303 683 b 479 964 303 843 361 936 l 479 1083 b 257 942 378 1057 303 1010 b 192 683 214 878 192 792 l 192 321 l 35 321 l 103 215 l 192 215 l 192 -75 l 303 -75 l 303 215 l 479 215 z "},"«":{"ha":514,"x_min":0,"x_max":0,"o":"m 314 310 l 456 618 l 365 618 l 222 310 l 365 0 l 456 0 z m 151 310 l 292 618 l 201 618 l 60 310 l 201 0 l 292 0 z "},"»":{"ha":514,"x_min":0,"x_max":0,"o":"m 313 618 l 222 618 l 363 310 l 222 0 l 313 0 l 456 310 z m 150 618 l 60 618 l 200 310 l 60 0 l 150 0 l 292 310 z "},"…":{"ha":771,"x_min":0,"x_max":0,"o":"m 718 113 l 607 113 l 607 0 l 718 0 z m 440 113 l 329 113 l 329 0 l 440 0 z m 163 113 l 51 113 l 51 0 l 163 0 z "},"Œ":{"ha":703,"x_min":0,"x_max":0,"o":"m 656 114 l 500 114 b 443 160 463 114 443 129 l 443 215 l 656 215 l 656 322 l 443 322 l 440 924 l 656 924 l 656 1036 l 358 1036 b 258 1065 326 1056 293 1065 b 74 885 153 1065 74 990 l 74 156 b 125 25 74 104 90 60 b 256 -28 160 -10 204 -28 b 385 29 301 -28 344 -8 b 461 0 408 10 435 0 l 656 0 z m 332 186 b 261 90 332 122 308 90 b 200 117 232 90 211 99 b 188 186 192 131 188 154 l 188 856 b 258 950 188 918 211 950 b 332 856 307 950 332 918 z "},"œ":{"ha":703,"x_min":0,"x_max":0,"o":"m 656 114 l 500 114 b 443 160 463 114 443 129 l 443 215 l 656 215 l 656 322 l 443 322 l 440 924 l 656 924 l 656 1036 l 358 1036 b 258 1065 326 1056 293 1065 b 74 885 153 1065 74 990 l 74 156 b 125 25 74 104 90 60 b 256 -28 160 -10 204 -28 b 385 29 301 -28 344 -8 b 461 0 408 10 435 0 l 656 0 z m 332 186 b 261 90 332 122 308 90 b 200 117 232 90 211 99 b 188 186 192 131 188 154 l 188 856 b 258 950 188 918 211 950 b 332 856 307 950 332 918 z "},"–":{"ha":479,"x_min":0,"x_max":0,"o":"m 428 332 l 58 332 l 58 218 l 428 218 z "},"—":{"ha":688,"x_min":0,"x_max":0,"o":"m 639 332 l 63 332 l 63 218 l 639 218 z "},"“":{"ha":350,"x_min":0,"x_max":0,"o":"m 303 1053 b 192 882 229 1024 192 967 l 192 832 l 303 832 z m 142 1053 b 31 882 58 1019 31 975 l 31 832 l 142 832 z "},"”":{"ha":350,"x_min":0,"x_max":0,"o":"m 321 1035 l 207 1035 l 207 813 b 321 986 294 844 321 892 z m 158 1035 l 47 1035 l 47 813 b 158 986 121 839 158 896 z "},"‘":{"ha":190,"x_min":0,"x_max":0,"o":"m 143 1035 b 32 863 69 1010 32 953 l 32 813 l 143 813 z "},"’":{"ha":190,"x_min":0,"x_max":0,"o":"m 158 1035 l 47 1035 l 47 813 b 158 986 121 839 158 896 z "},"¤":{"ha":513,"x_min":0,"x_max":0,"o":"m 413 219 b 422 283 419 238 422 260 l 422 379 b 410 446 422 403 418 425 l 457 501 l 385 563 l 347 518 b 257 542 318 533 288 542 b 164 518 228 542 197 533 l 128 563 l 57 501 l 103 446 b 90 379 94 429 90 407 l 90 283 b 100 219 90 264 93 243 l 57 169 l 128 107 l 160 147 b 257 121 194 129 228 121 b 350 147 289 121 319 129 l 385 107 l 457 169 z m 336 306 b 324 233 336 272 332 249 b 257 203 311 213 289 203 b 190 231 224 203 201 213 b 178 306 182 244 178 269 l 178 360 b 190 435 178 394 182 419 b 257 464 203 454 225 464 b 336 360 310 464 336 429 z "},"‹":{"ha":353,"x_min":0,"x_max":0,"o":"m 151 310 l 292 618 l 201 618 l 60 310 l 201 0 l 292 0 z "},"›":{"ha":353,"x_min":0,"x_max":0,"o":"m 150 618 l 60 618 l 200 310 l 60 0 l 150 0 l 292 310 z "},"‡":{"ha":486,"x_min":0,"x_max":0,"o":"m 469 461 l 299 461 l 299 690 l 469 690 l 469 807 l 299 807 l 299 1036 l 188 1036 l 188 807 l 17 807 l 17 690 l 188 690 l 188 461 l 17 461 l 17 340 l 188 340 l 188 111 l 242 13 l 299 111 l 299 340 l 469 340 z "},"·":{"ha":215,"x_min":0,"x_max":0,"o":"m 163 325 l 51 325 l 51 208 l 163 208 z "},"‚":{"ha":190,"x_min":0,"x_max":0,"o":"m 158 113 l 47 113 l 47 -108 b 158 64 132 -76 158 -31 z "},"„":{"ha":350,"x_min":0,"x_max":0,"o":"m 321 113 l 207 113 l 207 -108 b 321 64 294 -76 321 -32 z m 158 113 l 47 113 l 47 -108 b 158 64 132 -75 158 -31 z "},"‰":{"ha":1136,"x_min":0,"x_max":0,"o":"m 1090 531 b 971 642 1090 601 1042 642 b 850 531 904 642 850 597 l 850 97 b 971 -15 850 31 903 -15 b 1090 97 1039 -15 1090 29 z m 767 531 b 646 642 767 604 726 642 b 525 531 579 642 525 597 l 525 97 b 646 -15 525 32 581 -15 b 767 97 713 -15 767 32 z m 510 1044 l 232 0 l 300 0 l 578 1044 z m 285 944 b 163 1056 285 1011 231 1056 b 43 944 94 1056 43 1011 l 43 511 b 164 399 43 444 97 399 b 285 511 235 399 285 443 z m 1004 114 b 971 64 1004 81 993 64 b 935 114 947 64 935 81 l 935 514 b 971 565 935 549 947 565 b 1000 550 986 565 996 560 b 1004 514 1003 544 1004 532 z m 682 114 b 647 64 682 81 671 64 b 611 114 624 64 611 81 l 611 514 b 646 565 611 549 622 565 b 682 514 669 565 682 549 z m 200 531 b 164 479 200 496 188 479 b 128 526 140 479 128 494 l 128 928 b 164 979 128 963 140 979 b 200 928 188 979 200 963 z "},"ˆ":{"ha":404,"x_min":0,"x_max":0,"o":"m 200 1239 l 26 1175 l 47 1118 l 200 1174 l 351 1118 l 374 1175 z "},"˜":{"ha":404,"x_min":0,"x_max":0,"o":"m 319 1229 b 275 1179 314 1196 299 1179 b 218 1203 269 1179 250 1188 b 146 1226 186 1218 161 1226 b 33 1117 85 1226 43 1179 l 94 1117 b 144 1167 104 1150 121 1167 l 208 1136 b 278 1118 238 1124 260 1118 b 383 1229 340 1118 375 1156 z "},"¯":{"ha":404,"x_min":0,"x_max":0,"o":"m 324 1190 l 64 1190 l 64 1131 l 324 1131 z "},"¸":{"ha":404,"x_min":0,"x_max":0,"o":"m 247 -54 b 240 -7 247 -46 244 -31 l 186 46 b 194 -56 192 36 194 1 b 122 -124 194 -93 157 -124 b 92 -114 121 -124 111 -121 l 60 -157 b 125 -175 81 -169 103 -175 b 247 -54 193 -175 247 -122 z "},"Ł":{"ha":460,"x_min":0,"x_max":0,"o":""},"ł":{"ha":215,"x_min":0,"x_max":0,"o":"m 163 325 l 51 325 l 51 208 l 163 208 z "},"Ð":{"ha":1165,"x_min":0,"x_max":0,"o":""},"ð":{"ha":1165,"x_min":0,"x_max":0,"o":""},"Š":{"ha":329,"x_min":0,"x_max":0,"o":"m 156 719 b 318 1068 156 840 210 957 l 139 1068 b 26 719 64 968 26 851 b 67 513 26 656 40 586 l 113 383 b 150 253 138 311 150 268 b 42 -7 150 175 114 89 l 210 -7 b 281 260 257 81 281 169 b 219 483 281 311 260 385 b 156 719 176 586 156 665 z m 351 1206 l 322 1276 l 164 1218 l 4 1276 l -25 1206 l 164 1139 z "},"š":{"ha":332,"x_min":0,"x_max":0,"o":"m 156 719 b 318 1068 156 840 210 957 l 139 1068 b 26 719 64 968 26 851 b 67 513 26 656 40 586 l 113 383 b 150 253 138 311 150 268 b 42 -7 150 175 114 89 l 210 -7 b 281 260 257 81 281 169 b 219 483 281 311 260 385 b 156 719 176 586 156 665 z m 344 1206 l 315 1276 l 157 1218 l -3 1276 l -32 1206 l 157 1139 z "},"Ý":{"ha":1165,"x_min":0,"x_max":0,"o":""},"ý":{"ha":1165,"x_min":0,"x_max":0,"o":""},"Þ":{"ha":1165,"x_min":0,"x_max":0,"o":""},"þ":{"ha":460,"x_min":0,"x_max":0,"o":"m 450 533 b 192 918 450 707 364 836 l 192 1036 l 78 1036 l 78 0 l 192 0 l 192 151 b 450 533 364 240 450 368 z m 336 533 b 192 285 336 428 288 344 l 192 782 b 299 676 246 738 282 703 b 336 533 324 639 336 592 z "},"½":{"ha":828,"x_min":0,"x_max":0,"o":"m 749 -7 l 749 88 l 635 88 b 714 254 665 150 692 206 b 732 293 724 275 729 289 b 749 388 743 322 749 354 l 749 543 b 618 665 749 615 692 665 b 486 542 544 665 486 614 l 486 372 l 589 372 l 589 539 b 618 571 589 560 599 571 b 646 542 636 571 646 561 l 646 396 b 629 311 646 364 640 335 l 481 -7 z m 231 418 l 231 1125 l 57 954 l 131 954 l 131 418 z m 565 1075 l 481 1075 l 194 -7 l 278 -7 z "},"¼":{"ha":828,"x_min":0,"x_max":0,"o":"m 792 208 l 690 208 l 690 686 l 672 690 l 401 122 l 597 122 l 597 -7 l 690 -7 l 690 122 l 747 122 z m 567 1075 l 482 1075 l 196 -7 l 279 -7 z m 208 418 l 208 1125 l 35 954 l 104 954 l 106 418 z m 597 208 l 539 208 l 597 343 z "},"¹":{"ha":358,"x_min":0,"x_max":0,"o":"m 235 418 l 235 1124 l 60 954 l 133 954 l 133 418 z "},"¾":{"ha":1165,"x_min":0,"x_max":0,"o":""},"³":{"ha":358,"x_min":0,"x_max":0,"o":"m 188 418 b 311 518 256 418 311 457 b 303 582 311 547 308 568 b 256 632 296 600 279 617 b 311 810 293 690 311 750 b 47 1106 311 960 224 1058 l 47 1008 b 163 940 100 990 139 967 b 207 810 192 908 207 864 b 122 639 207 733 179 676 l -3 639 l 53 551 l 207 551 l 207 510 l 47 510 l 47 418 z "},"²":{"ha":358,"x_min":0,"x_max":0,"o":"m 301 418 l 301 510 l 188 510 b 285 721 236 611 268 681 b 301 819 296 747 301 781 l 301 967 b 172 1088 301 1038 243 1088 b 40 965 96 1088 40 1038 l 40 796 l 140 796 l 140 964 b 171 994 140 985 150 994 b 199 965 189 994 199 985 l 199 821 b 185 738 199 785 194 757 l 32 418 z "},"¦":{"ha":788,"x_min":0,"x_max":0,"o":"m 413 604 l 413 1147 l 286 1147 l 286 604 z m 413 -192 l 413 331 l 286 331 l 286 -192 z "},"­":{"ha":1165,"x_min":0,"x_max":0,"o":""},"×":{"ha":1165,"x_min":0,"x_max":0,"o":""},"Ä":{"ha":567,"x_min":0,"x_max":0,"o":"m 432 1217 l 350 1217 l 350 1138 l 432 1138 z m 268 1217 l 189 1217 l 189 1138 l 268 1138 z m 488 857 b 446 1003 488 917 474 965 b 311 1065 414 1044 369 1065 b 172 1004 251 1065 204 1044 b 126 857 142 967 126 918 l 126 322 l -36 322 l 31 215 l 126 215 l 126 0 l 239 0 l 239 215 l 375 215 l 375 0 l 488 0 z m 239 322 l 239 857 b 306 950 239 919 261 950 b 364 924 335 950 354 942 b 375 857 371 911 375 889 l 375 322 z "},"Å":{"ha":567,"x_min":0,"x_max":0,"o":"m 392 1188 b 308 1271 392 1236 357 1271 b 224 1188 258 1271 224 1238 b 308 1101 224 1138 258 1101 b 392 1188 357 1101 392 1139 z m 488 857 b 446 1003 488 917 474 965 b 311 1065 414 1044 369 1065 b 172 1004 251 1065 204 1044 b 126 857 142 967 126 918 l 126 322 l -36 322 l 31 215 l 126 215 l 126 0 l 239 0 l 239 215 l 375 215 l 375 0 l 488 0 z m 342 1188 b 308 1153 342 1164 331 1153 b 274 1186 285 1153 274 1164 b 310 1221 274 1210 286 1221 b 342 1188 331 1221 342 1210 z m 239 322 l 239 857 b 306 950 239 919 261 950 b 364 924 335 950 354 942 b 375 857 371 911 375 889 l 375 322 z "},"Ç":{"ha":379,"x_min":0,"x_max":0,"o":"m 254 -40 b 249 0 254 -32 253 -18 l 400 0 b 211 231 314 75 251 151 b 146 519 168 315 146 411 b 400 1036 146 715 231 888 l 236 1036 b 35 521 101 882 35 710 b 197 47 35 344 89 188 b 201 -42 200 29 201 -1 b 129 -110 201 -76 164 -110 b 99 -100 122 -110 111 -107 l 67 -143 b 132 -161 88 -156 110 -161 b 254 -40 200 -161 254 -108 z "},"É":{"ha":486,"x_min":0,"x_max":0,"o":"m 436 1219 l 179 1174 l 190 1113 l 447 1158 z m 450 113 l 281 113 b 239 153 253 113 239 126 l 239 215 l 450 215 l 450 322 l 239 322 l 239 924 l 450 924 l 450 1036 l 126 1036 l 126 322 l -36 322 l 31 215 l 126 215 b 150 64 126 144 135 94 b 281 0 174 21 217 0 l 450 0 z "},"Ñ":{"ha":510,"x_min":0,"x_max":0,"o":"m 363 1229 b 318 1179 357 1196 342 1179 b 263 1203 314 1179 294 1188 b 189 1226 231 1218 206 1226 b 76 1117 126 1226 89 1190 l 138 1117 b 188 1167 147 1150 164 1167 b 321 1118 258 1135 303 1118 b 426 1229 383 1118 418 1156 z m 435 1036 l 322 1036 l 322 663 l 76 1090 l 76 0 l 190 0 l 190 678 l 322 457 l 322 0 l 435 0 z "},"Ö":{"ha":510,"x_min":0,"x_max":0,"o":"m 300 1218 l 300 1139 l 382 1139 l 382 1218 z m 218 1218 l 139 1218 l 139 1139 l 218 1139 z m 440 885 b 256 1065 440 990 361 1065 b 69 885 149 1065 69 990 l 69 157 b 256 -26 69 50 146 -26 b 440 157 363 -26 440 50 z m 329 188 b 257 92 329 124 306 92 b 183 188 208 92 183 124 l 183 856 b 256 950 183 918 207 950 b 317 924 285 950 306 942 b 329 856 325 911 329 888 z "},"Ü":{"ha":513,"x_min":0,"x_max":0,"o":"m 296 1218 l 296 1139 l 378 1139 l 378 1218 z m 214 1218 l 135 1218 l 135 1139 l 214 1139 z m 439 1036 l 328 1036 l 328 176 b 256 89 328 118 304 89 b 188 176 210 89 188 118 l 188 1036 l 74 1036 l 74 176 b 119 33 74 117 89 69 b 256 -26 151 -7 197 -26 b 393 32 315 -26 361 -7 b 439 176 424 68 439 117 z "},"á":{"ha":567,"x_min":0,"x_max":0,"o":"m 468 1226 l 211 1181 l 222 1119 l 479 1167 z m 488 857 b 446 1003 488 917 474 965 b 311 1065 414 1044 369 1065 b 172 1004 251 1065 204 1044 b 126 857 142 967 126 918 l 126 322 l -36 322 l 31 215 l 126 215 l 126 0 l 239 0 l 239 215 l 375 215 l 375 0 l 488 0 z m 239 322 l 239 857 b 306 950 239 919 261 950 b 364 924 335 950 354 942 b 375 857 371 911 375 889 l 375 322 z "},"à":{"ha":567,"x_min":0,"x_max":0,"o":"m 139 1235 l 128 1172 l 385 1126 l 396 1189 z m 488 857 b 446 1003 488 917 474 965 b 311 1065 414 1044 369 1065 b 172 1004 251 1065 204 1044 b 126 857 142 967 126 918 l 126 322 l -36 322 l 31 215 l 126 215 l 126 0 l 239 0 l 239 215 l 375 215 l 375 0 l 488 0 z m 239 322 l 239 857 b 306 950 239 919 261 950 b 364 924 335 950 354 942 b 375 857 371 911 375 889 l 375 322 z "},"â":{"ha":567,"x_min":0,"x_max":0,"o":"m 303 1239 l 129 1175 l 150 1118 l 303 1174 l 454 1118 l 476 1175 z m 488 857 b 446 1003 488 917 474 965 b 311 1065 414 1044 369 1065 b 172 1004 251 1065 204 1044 b 126 857 142 967 126 918 l 126 322 l -36 322 l 31 215 l 126 215 l 126 0 l 239 0 l 239 215 l 375 215 l 375 0 l 488 0 z m 239 322 l 239 857 b 306 950 239 919 261 950 b 364 924 335 950 354 942 b 375 857 371 911 375 889 l 375 322 z "},"ä":{"ha":567,"x_min":0,"x_max":0,"o":"m 432 1224 l 350 1224 l 350 1143 l 432 1143 z m 268 1224 l 189 1224 l 189 1143 l 268 1143 z m 488 857 b 446 1003 488 917 474 965 b 311 1065 414 1044 369 1065 b 172 1004 251 1065 204 1044 b 126 857 142 967 126 918 l 126 322 l -36 322 l 31 215 l 126 215 l 126 0 l 239 0 l 239 215 l 375 215 l 375 0 l 488 0 z m 239 322 l 239 857 b 306 950 239 919 261 950 b 364 924 335 950 354 942 b 375 857 371 911 375 889 l 375 322 z "},"ã":{"ha":567,"x_min":0,"x_max":0,"o":"m 488 857 b 446 1003 488 917 474 965 b 311 1065 414 1044 369 1065 b 172 1004 251 1065 204 1044 b 126 857 142 967 126 918 l 126 322 l -36 322 l 31 215 l 126 215 l 126 0 l 239 0 l 239 215 l 375 215 l 375 0 l 488 0 z m 239 322 l 239 857 b 306 950 239 919 261 950 b 364 924 335 950 354 942 b 375 857 371 911 375 889 l 375 322 z m 415 1243 b 371 1192 410 1208 394 1192 b 314 1215 365 1192 346 1200 b 242 1240 282 1232 257 1240 b 129 1131 181 1240 139 1193 l 190 1131 b 240 1179 200 1163 217 1179 l 304 1150 b 374 1132 333 1138 356 1132 b 479 1243 436 1132 471 1169 z "},"å":{"ha":567,"x_min":0,"x_max":0,"o":"m 392 1188 b 308 1271 392 1236 357 1271 b 224 1188 258 1271 224 1238 b 308 1101 224 1138 258 1101 b 392 1188 357 1101 392 1139 z m 488 857 b 446 1003 488 917 474 965 b 311 1065 414 1044 369 1065 b 172 1004 251 1065 204 1044 b 126 857 142 967 126 918 l 126 322 l -36 322 l 31 215 l 126 215 l 126 0 l 239 0 l 239 215 l 375 215 l 375 0 l 488 0 z m 342 1188 b 308 1153 342 1164 331 1153 b 274 1186 285 1153 274 1164 b 310 1221 274 1210 286 1221 b 342 1188 331 1221 342 1210 z m 239 322 l 239 857 b 306 950 239 919 261 950 b 364 924 335 950 354 942 b 375 857 371 911 375 889 l 375 322 z "},"ç":{"ha":379,"x_min":0,"x_max":0,"o":"m 254 -40 b 249 0 254 -32 253 -18 l 400 0 b 211 231 314 75 251 151 b 146 519 168 315 146 411 b 400 1036 146 715 231 888 l 236 1036 b 35 521 101 882 35 710 b 197 47 35 344 89 188 b 201 -42 200 29 201 -1 b 129 -110 201 -76 164 -110 b 99 -100 122 -110 111 -107 l 67 -143 b 132 -161 88 -156 110 -161 b 254 -40 200 -161 254 -108 z "},"é":{"ha":489,"x_min":0,"x_max":0,"o":"m 436 1226 l 179 1181 l 190 1119 l 447 1167 z m 450 113 l 281 113 b 239 153 253 113 239 126 l 239 215 l 450 215 l 450 322 l 239 322 l 239 924 l 450 924 l 450 1036 l 126 1036 l 126 322 l -36 322 l 31 215 l 126 215 b 150 64 126 144 135 94 b 281 0 174 21 217 0 l 450 0 z "},"è":{"ha":486,"x_min":0,"x_max":0,"o":"m 133 1228 l 122 1167 l 379 1119 l 390 1182 z m 450 113 l 281 113 b 239 153 253 113 239 126 l 239 215 l 450 215 l 450 322 l 239 322 l 239 924 l 450 924 l 450 1036 l 126 1036 l 126 322 l -36 322 l 31 215 l 126 215 b 150 64 126 144 135 94 b 281 0 174 21 217 0 l 450 0 z "},"ê":{"ha":486,"x_min":0,"x_max":0,"o":"m 279 1246 l 106 1182 l 126 1125 l 279 1181 l 431 1125 l 453 1182 z m 450 113 l 281 113 b 239 153 253 113 239 126 l 239 215 l 450 215 l 450 322 l 239 322 l 239 924 l 450 924 l 450 1036 l 126 1036 l 126 322 l -36 322 l 31 215 l 126 215 b 150 64 126 144 135 94 b 281 0 174 21 217 0 l 450 0 z "},"ë":{"ha":486,"x_min":0,"x_max":0,"o":"m 410 1217 l 328 1217 l 328 1138 l 410 1138 z m 246 1217 l 167 1217 l 167 1138 l 246 1138 z m 450 113 l 281 113 b 239 153 253 113 239 126 l 239 215 l 450 215 l 450 322 l 239 322 l 239 924 l 450 924 l 450 1036 l 126 1036 l 126 322 l -36 322 l 31 215 l 126 215 b 150 64 126 144 135 94 b 281 0 174 21 217 0 l 450 0 z "},"í":{"ha":269,"x_min":0,"x_max":0,"o":"m 288 1233 l 31 1188 l 42 1126 l 299 1172 z m 192 1036 l 78 1036 l 78 0 l 192 0 z "},"ì":{"ha":269,"x_min":0,"x_max":0,"o":"m -7 1228 l -18 1167 l 239 1119 l 250 1182 z m 192 1036 l 78 1036 l 78 0 l 192 0 z "},"î":{"ha":269,"x_min":0,"x_max":0,"o":"m 135 1244 l -39 1181 l -18 1124 l 135 1179 l 286 1124 l 308 1181 z m 192 1036 l 78 1036 l 78 0 l 192 0 z "},"ï":{"ha":269,"x_min":0,"x_max":0,"o":"m 260 1224 l 178 1224 l 178 1143 l 260 1143 z m 96 1224 l 17 1224 l 17 1143 l 96 1143 z m 192 1036 l 78 1036 l 78 0 l 192 0 z "},"ñ":{"ha":510,"x_min":0,"x_max":0,"o":"m 435 1036 l 322 1036 l 322 663 l 76 1090 l 76 0 l 190 0 l 190 678 l 322 457 l 322 0 l 435 0 z m 363 1236 b 318 1185 357 1201 342 1185 b 260 1208 313 1185 293 1193 b 189 1233 228 1225 204 1233 b 76 1124 126 1233 89 1197 l 138 1124 b 188 1172 147 1156 164 1172 l 251 1143 b 321 1125 281 1131 304 1125 b 426 1236 383 1125 418 1163 z "},"ó":{"ha":510,"x_min":0,"x_max":0,"o":"m 411 1235 l 154 1189 l 165 1128 l 422 1174 z m 440 885 b 256 1065 440 990 361 1065 b 69 885 149 1065 69 990 l 69 157 b 256 -26 69 50 146 -26 b 440 157 363 -26 440 50 z m 329 188 b 257 92 329 124 306 92 b 183 188 208 92 183 124 l 183 856 b 256 950 183 918 207 950 b 317 924 285 950 306 942 b 329 856 325 911 329 888 z "},"ò":{"ha":510,"x_min":0,"x_max":0,"o":"m 89 1236 l 78 1174 l 335 1128 l 346 1190 z m 440 885 b 256 1065 440 990 361 1065 b 69 885 149 1065 69 990 l 69 157 b 256 -26 69 50 146 -26 b 440 157 363 -26 440 50 z m 329 188 b 257 92 329 124 306 92 b 183 188 208 92 183 124 l 183 856 b 256 950 183 918 207 950 b 317 924 285 950 306 942 b 329 856 325 911 329 888 z "},"ô":{"ha":510,"x_min":0,"x_max":0,"o":"m 258 1240 l 85 1176 l 106 1119 l 258 1175 l 410 1119 l 432 1176 z m 440 885 b 256 1065 440 990 361 1065 b 69 885 149 1065 69 990 l 69 157 b 256 -26 69 50 146 -26 b 440 157 363 -26 440 50 z m 329 188 b 257 92 329 124 306 92 b 183 188 208 92 183 124 l 183 856 b 256 950 183 918 207 950 b 317 924 285 950 306 942 b 329 856 325 911 329 888 z "},"ö":{"ha":510,"x_min":0,"x_max":0,"o":"m 300 1225 l 300 1144 l 382 1144 l 382 1225 z m 218 1225 l 139 1225 l 139 1144 l 218 1144 z m 440 885 b 256 1065 440 990 361 1065 b 69 885 149 1065 69 990 l 69 157 b 256 -26 69 50 146 -26 b 440 157 363 -26 440 50 z m 329 188 b 257 92 329 124 306 92 b 183 188 208 92 183 124 l 183 856 b 256 950 183 918 207 950 b 317 924 285 950 306 942 b 329 856 325 911 329 888 z "},"õ":{"ha":510,"x_min":0,"x_max":0,"o":"m 440 885 b 256 1065 440 990 361 1065 b 69 885 149 1065 69 990 l 69 157 b 256 -26 69 50 146 -26 b 440 157 363 -26 440 50 z m 329 188 b 257 92 329 124 306 92 b 183 188 208 92 183 124 l 183 856 b 256 950 183 918 207 950 b 317 924 285 950 306 942 b 329 856 325 911 329 888 z m 364 1238 b 319 1186 358 1203 343 1186 b 261 1210 314 1186 294 1194 b 190 1235 229 1226 206 1235 b 78 1125 128 1235 90 1199 l 139 1125 b 189 1174 149 1157 165 1174 l 253 1144 b 322 1126 282 1132 306 1126 b 428 1238 385 1126 419 1164 z "},"ú":{"ha":513,"x_min":0,"x_max":0,"o":"m 435 1235 l 178 1189 l 189 1128 l 446 1174 z m 439 1036 l 328 1036 l 328 176 b 256 89 328 118 304 89 b 188 176 210 89 188 118 l 188 1036 l 74 1036 l 74 176 b 119 33 74 117 89 69 b 256 -26 151 -7 197 -26 b 393 32 315 -26 361 -7 b 439 176 424 68 439 117 z "},"ù":{"ha":513,"x_min":0,"x_max":0,"o":"m 85 1229 l 74 1167 l 331 1121 l 342 1183 z m 439 1036 l 328 1036 l 328 176 b 256 89 328 118 304 89 b 188 176 210 89 188 118 l 188 1036 l 74 1036 l 74 176 b 119 33 74 117 89 69 b 256 -26 151 -7 197 -26 b 393 32 315 -26 361 -7 b 439 176 424 68 439 117 z "},"û":{"ha":513,"x_min":0,"x_max":0,"o":"m 256 1240 l 83 1176 l 103 1119 l 256 1175 l 407 1119 l 429 1176 z m 439 1036 l 328 1036 l 328 176 b 256 89 328 118 304 89 b 188 176 210 89 188 118 l 188 1036 l 74 1036 l 74 176 b 119 33 74 117 89 69 b 256 -26 151 -7 197 -26 b 393 32 315 -26 361 -7 b 439 176 424 68 439 117 z "},"ü":{"ha":513,"x_min":0,"x_max":0,"o":"m 296 1218 l 296 1139 l 378 1139 l 378 1218 z m 214 1218 l 135 1218 l 135 1139 l 214 1139 z m 439 1036 l 328 1036 l 328 176 b 256 89 328 118 304 89 b 188 176 210 89 188 118 l 188 1036 l 74 1036 l 74 176 b 119 33 74 117 89 69 b 256 -26 151 -7 197 -26 b 393 32 315 -26 361 -7 b 439 176 424 68 439 117 z "},"°":{"ha":433,"x_min":0,"x_max":0,"o":"m 375 900 b 215 1064 375 990 306 1064 b 103 1015 171 1064 133 1047 b 57 900 72 983 57 944 b 103 788 57 857 72 819 b 215 742 135 757 172 742 b 326 789 258 742 294 757 b 375 900 358 821 375 857 z m 313 900 b 215 806 313 849 267 806 b 122 901 164 806 122 847 b 215 999 122 953 165 999 b 313 900 271 999 313 956 z "},"®":{"ha":1214,"x_min":0,"x_max":0,"o":"m 1142 518 b 986 897 1142 667 1090 793 b 608 1053 883 1001 757 1053 b 228 896 461 1053 335 1000 b 69 518 122 792 69 665 b 226 139 69 369 122 243 b 608 -15 332 36 460 -15 b 985 140 754 -15 881 36 b 1142 518 1089 244 1142 371 z m 1043 518 b 918 206 1043 394 1001 290 b 608 81 835 122 732 81 b 288 203 482 81 375 121 b 153 518 197 286 153 392 b 286 839 153 643 197 750 b 608 972 375 928 482 972 b 919 839 733 972 838 928 b 1043 518 1001 751 1043 644 z m 750 328 b 690 421 750 382 740 400 b 736 492 713 450 728 474 b 750 574 746 514 750 542 b 681 751 750 643 726 703 b 510 844 638 797 581 829 l 510 424 l 407 424 l 458 343 l 510 343 l 510 225 l 599 225 l 599 343 l 644 343 b 663 339 651 343 657 342 l 663 225 l 750 225 z m 663 569 b 599 435 663 522 642 478 l 599 711 b 663 569 642 667 663 619 z "},"©":{"ha":1214,"x_min":0,"x_max":0,"o":"m 1142 518 b 986 897 1142 667 1090 793 b 608 1053 883 1001 757 1053 b 228 896 461 1053 335 1000 b 69 518 122 792 69 665 b 226 139 69 369 122 243 b 608 -15 332 36 460 -15 b 985 140 754 -15 881 36 b 1142 518 1089 244 1142 371 z m 1043 518 b 918 206 1043 394 1001 290 b 608 81 835 122 732 81 b 288 203 482 81 375 121 b 153 518 197 286 153 392 b 286 839 153 643 197 750 b 608 972 375 928 482 972 b 919 839 733 972 838 928 b 1043 518 1001 751 1043 644 z m 724 229 b 603 356 665 278 625 319 b 561 524 575 401 561 457 b 724 819 561 631 615 729 l 597 819 b 465 525 510 729 465 632 b 597 229 465 414 510 315 z "},"™":{"ha":832,"x_min":0,"x_max":0,"o":"m 738 953 b 628 1065 738 1028 701 1065 b 556 1039 611 1065 588 1057 b 481 1065 524 1057 499 1065 b 372 953 414 1065 372 1021 l 372 501 l 453 501 l 453 953 b 483 989 453 976 463 989 b 515 954 504 989 515 978 l 515 501 l 593 501 l 593 953 b 625 989 593 976 604 989 b 657 953 646 989 657 976 l 657 501 l 738 501 z m 326 1050 l 96 1050 l 96 972 l 172 972 l 172 501 l 250 501 l 250 972 l 326 972 z "},"±":{"ha":513,"x_min":0,"x_max":0,"o":"m 458 319 l 313 319 l 313 493 l 211 493 l 211 319 l 67 319 l 67 218 l 211 218 l 211 83 l 313 83 l 313 218 l 458 218 z m 425 43 l 97 43 l 97 -61 l 425 -61 z "},"µ":{"ha":797,"x_min":0,"x_max":0,"o":"m 710 746 l 601 746 l 601 343 b 557 154 601 264 586 201 b 393 67 521 96 467 67 b 199 331 264 67 199 154 l 199 746 l 88 746 l 88 -262 l 199 -262 l 199 94 b 390 -18 249 15 300 -18 b 601 133 486 -18 557 32 l 601 0 l 710 0 z "},"¬":{"ha":1165,"x_min":0,"x_max":0,"o":""}," ":{"ha":417,"x_min":0,"x_max":0,"o":""},"À":{"ha":567,"x_min":0,"x_max":0,"o":"m 139 1235 l 128 1172 l 385 1126 l 396 1189 z m 488 857 b 446 1003 488 917 474 965 b 311 1065 414 1044 369 1065 b 172 1004 251 1065 204 1044 b 126 857 142 967 126 918 l 126 322 l -36 322 l 31 215 l 126 215 l 126 0 l 239 0 l 239 215 l 375 215 l 375 0 l 488 0 z m 239 322 l 239 857 b 306 950 239 919 261 950 b 364 924 335 950 354 942 b 375 857 371 911 375 889 l 375 322 z "},"Ã":{"ha":567,"x_min":0,"x_max":0,"o":"m 488 857 b 446 1003 488 917 474 965 b 311 1065 414 1044 369 1065 b 172 1004 251 1065 204 1044 b 126 857 142 967 126 918 l 126 322 l -36 322 l 31 215 l 126 215 l 126 0 l 239 0 l 239 215 l 375 215 l 375 0 l 488 0 z m 239 322 l 239 857 b 306 950 239 919 261 950 b 364 924 335 950 354 942 b 375 857 371 911 375 889 l 375 322 z m 408 1229 b 364 1179 401 1196 386 1179 b 307 1203 358 1179 339 1188 b 235 1226 275 1218 250 1226 b 122 1117 174 1226 132 1179 l 183 1117 b 233 1167 193 1150 210 1167 l 297 1136 b 367 1118 326 1124 349 1118 b 472 1229 429 1118 464 1156 z "},"Õ":{"ha":510,"x_min":0,"x_max":0,"o":"m 440 885 b 256 1065 440 990 361 1065 b 69 885 149 1065 69 990 l 69 157 b 256 -26 69 50 146 -26 b 440 157 363 -26 440 50 z m 329 188 b 257 92 329 124 306 92 b 183 188 208 92 183 124 l 183 856 b 256 950 183 918 207 950 b 317 924 285 950 306 942 b 329 856 325 911 329 888 z m 364 1231 b 319 1181 358 1197 343 1181 b 264 1204 315 1181 296 1189 b 190 1228 232 1219 207 1228 b 78 1118 128 1228 90 1192 l 139 1118 b 189 1167 149 1151 165 1168 l 253 1138 b 322 1119 282 1125 306 1119 b 428 1231 385 1119 419 1157 z "},"÷":{"ha":513,"x_min":0,"x_max":0,"o":"m 325 767 l 211 767 l 211 653 l 325 653 z m 435 581 l 103 581 l 103 467 l 435 467 z m 325 393 l 211 393 l 211 279 l 325 279 z "},"ÿ":{"ha":460,"x_min":0,"x_max":0,"o":"m 269 1224 l 269 1143 l 351 1143 l 351 1224 z m 188 1224 l 108 1224 l 108 1143 l 188 1143 z m 413 1036 l 300 1036 l 300 414 b 231 333 300 360 276 333 b 160 414 183 333 160 360 l 160 1036 l 49 1036 l 49 414 b 175 222 49 310 90 246 l 175 0 l 286 0 l 286 222 b 413 414 371 249 413 313 z "},"Ÿ":{"ha":460,"x_min":0,"x_max":0,"o":"m 269 1224 l 269 1143 l 351 1143 l 351 1224 z m 188 1224 l 108 1224 l 108 1143 l 188 1143 z m 413 1036 l 300 1036 l 300 414 b 231 333 300 360 276 333 b 160 414 183 333 160 360 l 160 1036 l 49 1036 l 49 414 b 175 222 49 310 90 246 l 175 0 l 286 0 l 286 222 b 413 414 371 249 413 313 z "},"Â":{"ha":567,"x_min":0,"x_max":0,"o":"m 303 1239 l 129 1175 l 150 1118 l 303 1174 l 454 1118 l 476 1175 z m 488 857 b 446 1003 488 917 474 965 b 311 1065 414 1044 369 1065 b 172 1004 251 1065 204 1044 b 126 857 142 967 126 918 l 126 322 l -36 322 l 31 215 l 126 215 l 126 0 l 239 0 l 239 215 l 375 215 l 375 0 l 488 0 z m 239 322 l 239 857 b 306 950 239 919 261 950 b 364 924 335 950 354 942 b 375 857 371 911 375 889 l 375 322 z "},"Ê":{"ha":486,"x_min":0,"x_max":0,"o":"m 279 1239 l 106 1175 l 126 1118 l 279 1174 l 431 1118 l 453 1175 z m 450 113 l 281 113 b 239 153 253 113 239 126 l 239 215 l 450 215 l 450 322 l 239 322 l 239 924 l 450 924 l 450 1036 l 126 1036 l 126 322 l -36 322 l 31 215 l 126 215 b 150 64 126 144 135 94 b 281 0 174 21 217 0 l 450 0 z "},"Á":{"ha":567,"x_min":0,"x_max":0,"o":"m 482 1226 l 225 1181 l 236 1119 l 493 1167 z m 488 857 b 446 1003 488 917 474 965 b 311 1065 414 1044 369 1065 b 172 1004 251 1065 204 1044 b 126 857 142 967 126 918 l 126 322 l -36 322 l 31 215 l 126 215 l 126 0 l 239 0 l 239 215 l 375 215 l 375 0 l 488 0 z m 239 322 l 239 857 b 306 950 239 919 261 950 b 364 924 335 950 354 942 b 375 857 371 911 375 889 l 375 322 z "},"Ë":{"ha":486,"x_min":0,"x_max":0,"o":"m 410 1217 l 328 1217 l 328 1138 l 410 1138 z m 246 1217 l 167 1217 l 167 1138 l 246 1138 z m 450 113 l 281 113 b 239 153 253 113 239 126 l 239 215 l 450 215 l 450 322 l 239 322 l 239 924 l 450 924 l 450 1036 l 126 1036 l 126 322 l -36 322 l 31 215 l 126 215 b 150 64 126 144 135 94 b 281 0 174 21 217 0 l 450 0 z "},"È":{"ha":486,"x_min":0,"x_max":0,"o":"m 133 1235 l 122 1172 l 379 1126 l 390 1189 z m 450 113 l 281 113 b 239 153 253 113 239 126 l 239 215 l 450 215 l 450 322 l 239 322 l 239 924 l 450 924 l 450 1036 l 126 1036 l 126 322 l -36 322 l 31 215 l 126 215 b 150 64 126 144 135 94 b 281 0 174 21 217 0 l 450 0 z "},"Í":{"ha":269,"x_min":0,"x_max":0,"o":"m 294 1226 l 38 1181 l 49 1119 l 306 1167 z m 192 1036 l 78 1036 l 78 0 l 192 0 z "},"Î":{"ha":269,"x_min":0,"x_max":0,"o":"m 135 1244 l -39 1181 l -18 1124 l 135 1179 l 286 1124 l 308 1181 z m 192 1036 l 78 1036 l 78 0 l 192 0 z "},"Ï":{"ha":269,"x_min":0,"x_max":0,"o":"m 260 1224 l 178 1224 l 178 1143 l 260 1143 z m 96 1224 l 17 1224 l 17 1143 l 96 1143 z m 192 1036 l 78 1036 l 78 0 l 192 0 z "},"Ì":{"ha":269,"x_min":0,"x_max":0,"o":"m -14 1235 l -25 1172 l 232 1126 l 243 1189 z m 192 1036 l 78 1036 l 78 0 l 192 0 z "},"Ó":{"ha":510,"x_min":0,"x_max":0,"o":"m 418 1235 l 161 1189 l 172 1128 l 429 1174 z m 440 885 b 256 1065 440 990 361 1065 b 69 885 149 1065 69 990 l 69 157 b 256 -26 69 50 146 -26 b 440 157 363 -26 440 50 z m 329 188 b 257 92 329 124 306 92 b 183 188 208 92 183 124 l 183 856 b 256 950 183 918 207 950 b 317 924 285 950 306 942 b 329 856 325 911 329 888 z "},"Ô":{"ha":510,"x_min":0,"x_max":0,"o":"m 251 1240 l 78 1176 l 99 1119 l 251 1175 l 403 1119 l 425 1176 z m 440 885 b 256 1065 440 990 361 1065 b 69 885 149 1065 69 990 l 69 157 b 256 -26 69 50 146 -26 b 440 157 363 -26 440 50 z m 329 188 b 257 92 329 124 306 92 b 183 188 208 92 183 124 l 183 856 b 256 950 183 918 207 950 b 317 924 285 950 306 942 b 329 856 325 911 329 888 z "},"Ò":{"ha":510,"x_min":0,"x_max":0,"o":"m 82 1236 l 71 1174 l 328 1128 l 339 1190 z m 440 885 b 256 1065 440 990 361 1065 b 69 885 149 1065 69 990 l 69 157 b 256 -26 69 50 146 -26 b 440 157 363 -26 440 50 z m 329 188 b 257 92 329 124 306 92 b 183 188 208 92 183 124 l 183 856 b 256 950 183 918 207 950 b 317 924 285 950 306 942 b 329 856 325 911 329 888 z "},"Ú":{"ha":513,"x_min":0,"x_max":0,"o":"m 435 1235 l 178 1189 l 189 1128 l 446 1174 z m 439 1036 l 328 1036 l 328 176 b 256 89 328 118 304 89 b 188 176 210 89 188 118 l 188 1036 l 74 1036 l 74 176 b 119 33 74 117 89 69 b 256 -26 151 -7 197 -26 b 393 32 315 -26 361 -7 b 439 176 424 68 439 117 z "},"Û":{"ha":513,"x_min":0,"x_max":0,"o":"m 249 1247 l 75 1183 l 96 1126 l 249 1182 l 400 1126 l 422 1183 z m 439 1036 l 328 1036 l 328 176 b 256 89 328 118 304 89 b 188 176 210 89 188 118 l 188 1036 l 74 1036 l 74 176 b 119 33 74 117 89 69 b 256 -26 151 -7 197 -26 b 393 32 315 -26 361 -7 b 439 176 424 68 439 117 z "},"Ù":{"ha":513,"x_min":0,"x_max":0,"o":"m 85 1236 l 74 1174 l 331 1128 l 342 1190 z m 439 1036 l 328 1036 l 328 176 b 256 89 328 118 304 89 b 188 176 210 89 188 118 l 188 1036 l 74 1036 l 74 176 b 119 33 74 117 89 69 b 256 -26 151 -7 197 -26 b 393 32 315 -26 361 -7 b 439 176 424 68 439 117 z "},"":{"ha":1256,"x_min":0,"x_max":0,"o":"m 0 472 l 175 472 b 392 149 211 346 283 239 b 661 14 463 86 553 40 l 917 14 b 1174 135 1025 40 1111 81 l 1186 297 b 661 121 1043 144 868 86 b 297 472 463 211 342 328 l 957 472 l 1025 579 l 269 579 l 269 688 l 1051 688 l 1079 715 l 1106 796 l 297 810 b 674 1146 378 981 503 1092 b 1186 971 881 1172 1051 1114 l 1226 1079 b 674 1254 1101 1214 917 1272 b 175 796 450 1208 283 1056 l 26 796 l 0 688 l 163 688 l 175 579 b 0 499 58 607 0 581 z "}}}
